<mxfile host="app.diagrams.net" modified="2023-04-20T02:05:45.774Z" agent="Mozilla/5.0 (Windows NT 10.0; Win64; x64) AppleWebKit/537.36 (KHTML, like Gecko) Chrome/112.0.0.0 Safari/537.36" etag="Srhc-cHz3Q0iIi81O0o2" version="21.2.1" type="device" pages="2">
  <diagram name="Genie (V2)" id="MLvQF5PcnV9cFHmc5IFy">
    <mxGraphModel dx="1690" dy="1110" grid="1" gridSize="10" guides="1" tooltips="1" connect="1" arrows="1" fold="1" page="1" pageScale="1" pageWidth="827" pageHeight="1169" math="0" shadow="0">
      <root>
        <mxCell id="0" />
        <mxCell id="1" parent="0" />
        <mxCell id="mR2TVfwb4jGVoqLYI3TS-29" value="" style="group" parent="1" vertex="1" connectable="0">
          <mxGeometry x="241" y="615" width="140" height="170" as="geometry" />
        </mxCell>
        <mxCell id="mR2TVfwb4jGVoqLYI3TS-32" value="" style="group" parent="mR2TVfwb4jGVoqLYI3TS-29" vertex="1" connectable="0">
          <mxGeometry width="140" height="170" as="geometry" />
        </mxCell>
        <mxCell id="mR2TVfwb4jGVoqLYI3TS-30" value="&lt;h1&gt;&lt;i style=&quot;background-color: initial;&quot;&gt;Battery Switch&amp;nbsp;&lt;/i&gt;&lt;/h1&gt;&lt;h1&gt;&lt;br&gt;&lt;/h1&gt;" style="text;html=1;spacing=5;spacingTop=-20;whiteSpace=wrap;overflow=hidden;rounded=0;fillColor=#f5f5f5;fontColor=#333333;strokeColor=#666666;" parent="mR2TVfwb4jGVoqLYI3TS-32" vertex="1">
          <mxGeometry width="140" height="170" as="geometry" />
        </mxCell>
        <mxCell id="mR2TVfwb4jGVoqLYI3TS-27" value="" style="html=1;shape=mxgraph.electrical.electro-mechanical.singleSwitch;aspect=fixed;elSwitchState=off;rotation=0;strokeWidth=1;" parent="mR2TVfwb4jGVoqLYI3TS-32" vertex="1">
          <mxGeometry x="30" y="88.84000000000003" width="80" height="21.33" as="geometry" />
        </mxCell>
        <mxCell id="pQORnAWpVIZ-AfUJZUiN-2" value="&lt;h1&gt;48V Battery&lt;/h1&gt;&lt;p&gt;&lt;i&gt;Specs/descr: 4 x 12.8 V, Lithium deep cycle&lt;/i&gt;&lt;/p&gt;&lt;p&gt;&lt;i&gt;Model: Powertech&lt;/i&gt;&lt;/p&gt;" style="text;html=1;spacing=5;spacingTop=-20;whiteSpace=wrap;overflow=hidden;rounded=0;fillColor=#f8cecc;strokeColor=#b85450;strokeWidth=3;" parent="1" vertex="1">
          <mxGeometry x="101" y="1085" width="240" height="110" as="geometry" />
        </mxCell>
        <mxCell id="pQORnAWpVIZ-AfUJZUiN-3" value="&lt;h1&gt;&lt;i&gt;Module&lt;/i&gt;&lt;/h1&gt;&lt;p&gt;&lt;i&gt;Specs/descr:&lt;/i&gt;&lt;/p&gt;&lt;p&gt;&lt;i&gt;Model:&lt;/i&gt;&lt;/p&gt;" style="text;html=1;spacing=5;spacingTop=-20;whiteSpace=wrap;overflow=hidden;rounded=0;fillColor=#f5f5f5;fontColor=#333333;strokeColor=#666666;" parent="1" vertex="1">
          <mxGeometry x="1441" y="10" width="240" height="110" as="geometry" />
        </mxCell>
        <mxCell id="H_eOQc_jWsqqxqUB531G-6" style="edgeStyle=orthogonalEdgeStyle;rounded=0;orthogonalLoop=1;jettySize=auto;html=1;exitX=1;exitY=0.5;exitDx=0;exitDy=0;entryX=0;entryY=0.5;entryDx=0;entryDy=0;strokeWidth=4;" parent="1" source="pQORnAWpVIZ-AfUJZUiN-5" target="H_eOQc_jWsqqxqUB531G-5" edge="1">
          <mxGeometry relative="1" as="geometry" />
        </mxCell>
        <mxCell id="pQORnAWpVIZ-AfUJZUiN-5" value="&lt;h1&gt;&lt;i&gt;Motor controller&lt;/i&gt;&lt;/h1&gt;&lt;p&gt;&lt;i&gt;Specs/descr: 4 BLDC motor controllers.&lt;/i&gt;&lt;/p&gt;&lt;p&gt;&lt;i&gt;Model: O-Drive?&lt;/i&gt;&lt;/p&gt;" style="text;html=1;spacing=5;spacingTop=-20;whiteSpace=wrap;overflow=hidden;rounded=0;fillColor=#f5f5f5;fontColor=#333333;strokeColor=#666666;" parent="1" vertex="1">
          <mxGeometry x="222" y="935" width="240" height="110" as="geometry" />
        </mxCell>
        <mxCell id="H_eOQc_jWsqqxqUB531G-25" style="edgeStyle=orthogonalEdgeStyle;rounded=0;orthogonalLoop=1;jettySize=auto;html=1;exitX=1;exitY=0.5;exitDx=0;exitDy=0;entryX=0;entryY=0.5;entryDx=0;entryDy=0;fillColor=#d5e8d4;strokeColor=#82b366;strokeWidth=3;" parent="1" source="pQORnAWpVIZ-AfUJZUiN-10" target="H_eOQc_jWsqqxqUB531G-24" edge="1">
          <mxGeometry relative="1" as="geometry">
            <Array as="points">
              <mxPoint x="731" y="240" />
              <mxPoint x="731" y="240" />
            </Array>
          </mxGeometry>
        </mxCell>
        <mxCell id="pQORnAWpVIZ-AfUJZUiN-10" value="&lt;h1&gt;&lt;i style=&quot;background-color: initial;&quot;&gt;16V Power supply&lt;br&gt;&lt;/i&gt;&lt;i style=&quot;background-color: initial; font-size: 12px; font-weight: normal;&quot;&gt;Specs/descr: DCDC converter&lt;/i&gt;&lt;/h1&gt;&lt;p&gt;&lt;i&gt;Model: TDK-Lambda i7a DCDC converter&lt;/i&gt;&lt;/p&gt;" style="text;html=1;spacing=5;spacingTop=-20;whiteSpace=wrap;overflow=hidden;rounded=0;fillColor=#d5e8d4;strokeColor=#82b366;strokeWidth=3;" parent="1" vertex="1">
          <mxGeometry x="491" y="175" width="240" height="110" as="geometry" />
        </mxCell>
        <mxCell id="H_eOQc_jWsqqxqUB531G-38" style="edgeStyle=orthogonalEdgeStyle;rounded=0;orthogonalLoop=1;jettySize=auto;html=1;exitX=0;exitY=0.5;exitDx=0;exitDy=0;entryX=1;entryY=0.25;entryDx=0;entryDy=0;fillColor=#ffe6cc;strokeColor=#d79b00;startArrow=classic;startFill=1;" parent="1" source="pQORnAWpVIZ-AfUJZUiN-14" target="H_eOQc_jWsqqxqUB531G-1" edge="1">
          <mxGeometry relative="1" as="geometry">
            <mxPoint x="1151" y="509" as="targetPoint" />
            <Array as="points">
              <mxPoint x="1051" y="460" />
              <mxPoint x="1051" y="693" />
            </Array>
          </mxGeometry>
        </mxCell>
        <mxCell id="pQORnAWpVIZ-AfUJZUiN-14" value="&lt;h1&gt;&lt;i&gt;Recon Cameras&lt;/i&gt;&lt;/h1&gt;&lt;p&gt;&lt;i&gt;Specs/descr: Main 6 reconstruction cameras&lt;/i&gt;&lt;/p&gt;&lt;p&gt;&lt;i&gt;Model: Computar?&lt;/i&gt;&lt;/p&gt;" style="text;html=1;spacing=5;spacingTop=-20;whiteSpace=wrap;overflow=hidden;rounded=0;fillColor=#f5f5f5;fontColor=#333333;strokeColor=#666666;" parent="1" vertex="1">
          <mxGeometry x="1222" y="405" width="240" height="110" as="geometry" />
        </mxCell>
        <mxCell id="H_eOQc_jWsqqxqUB531G-4" style="edgeStyle=orthogonalEdgeStyle;rounded=0;orthogonalLoop=1;jettySize=auto;html=1;exitX=1;exitY=0.75;exitDx=0;exitDy=0;entryX=0;entryY=0;entryDx=0;entryDy=0;fillColor=#fff2cc;strokeColor=#d6b656;strokeWidth=3;" parent="1" source="pQORnAWpVIZ-AfUJZUiN-15" target="H_eOQc_jWsqqxqUB531G-2" edge="1">
          <mxGeometry relative="1" as="geometry">
            <Array as="points">
              <mxPoint x="671" y="748" />
              <mxPoint x="671" y="895" />
              <mxPoint x="761" y="895" />
              <mxPoint x="761" y="955" />
            </Array>
            <mxPoint x="621" y="1009" as="sourcePoint" />
          </mxGeometry>
        </mxCell>
        <mxCell id="H_eOQc_jWsqqxqUB531G-14" style="edgeStyle=orthogonalEdgeStyle;rounded=0;orthogonalLoop=1;jettySize=auto;html=1;exitX=1;exitY=0.25;exitDx=0;exitDy=0;entryX=0;entryY=0.5;entryDx=0;entryDy=0;fillColor=#fff2cc;strokeColor=#d6b656;strokeWidth=3;" parent="1" source="pQORnAWpVIZ-AfUJZUiN-15" target="H_eOQc_jWsqqxqUB531G-13" edge="1">
          <mxGeometry relative="1" as="geometry">
            <Array as="points">
              <mxPoint x="671" y="693" />
              <mxPoint x="671" y="435" />
            </Array>
          </mxGeometry>
        </mxCell>
        <mxCell id="pQORnAWpVIZ-AfUJZUiN-15" value="&lt;h1&gt;&lt;i style=&quot;background-color: initial;&quot;&gt;19V Power supply&lt;br&gt;&lt;/i&gt;&lt;i style=&quot;background-color: initial; font-size: 12px; font-weight: normal;&quot;&gt;Specs/descr: DCDC converter&lt;/i&gt;&lt;/h1&gt;&lt;p&gt;&lt;i style=&quot;border-color: var(--border-color);&quot;&gt;Model: TDK-Lambda i7a DCDC converter&lt;/i&gt;&lt;br&gt;&lt;/p&gt;" style="text;html=1;spacing=5;spacingTop=-20;whiteSpace=wrap;overflow=hidden;rounded=0;fillColor=#fff2cc;strokeColor=#d6b656;strokeWidth=3;" parent="1" vertex="1">
          <mxGeometry x="381" y="665.5" width="240" height="110" as="geometry" />
        </mxCell>
        <mxCell id="H_eOQc_jWsqqxqUB531G-1" value="&lt;h1&gt;&lt;i&gt;Payload NUC&lt;/i&gt;&lt;/h1&gt;&lt;p&gt;&lt;i&gt;Specs/descr: Camera processing&lt;/i&gt;&lt;/p&gt;&lt;p&gt;&lt;i&gt;Model: ?&lt;/i&gt;&lt;/p&gt;" style="text;html=1;spacing=5;spacingTop=-20;whiteSpace=wrap;overflow=hidden;rounded=0;fillColor=#f5f5f5;fontColor=#333333;strokeColor=#666666;" parent="1" vertex="1">
          <mxGeometry x="758" y="665.5" width="240" height="110" as="geometry" />
        </mxCell>
        <mxCell id="H_eOQc_jWsqqxqUB531G-2" value="&lt;h1&gt;&lt;i&gt;Platform NUC&lt;/i&gt;&lt;/h1&gt;&lt;p&gt;&lt;i&gt;Specs/descr: Navigation processing&lt;/i&gt;&lt;/p&gt;&lt;p&gt;&lt;i&gt;Model: ?&lt;/i&gt;&lt;/p&gt;" style="text;html=1;spacing=5;spacingTop=-20;whiteSpace=wrap;overflow=hidden;rounded=0;fillColor=#f5f5f5;fontColor=#333333;strokeColor=#666666;" parent="1" vertex="1">
          <mxGeometry x="811" y="955" width="240" height="110" as="geometry" />
        </mxCell>
        <mxCell id="H_eOQc_jWsqqxqUB531G-5" value="&lt;h1&gt;&lt;i&gt;Motors&lt;/i&gt;&lt;/h1&gt;&lt;p&gt;&lt;i&gt;Specs/descr: Four wheel drive BLDC motors&lt;/i&gt;&lt;/p&gt;&lt;p&gt;&lt;i&gt;Model: Kimbrough J60BLS99-430A (www.chinajingbo.com)&lt;/i&gt;&lt;/p&gt;" style="text;html=1;spacing=5;spacingTop=-20;whiteSpace=wrap;overflow=hidden;rounded=0;fillColor=#f5f5f5;fontColor=#333333;strokeColor=#666666;" parent="1" vertex="1">
          <mxGeometry x="492" y="925" width="240" height="130" as="geometry" />
        </mxCell>
        <mxCell id="H_eOQc_jWsqqxqUB531G-11" value="&lt;b&gt;&lt;font style=&quot;font-size: 36px;&quot;&gt;Maaratech Tree/Plant Reconstruction Rover : Genie&lt;br&gt;Electrical Architecture&lt;br&gt;&lt;/font&gt;&lt;/b&gt;" style="text;html=1;strokeColor=none;fillColor=none;align=center;verticalAlign=middle;whiteSpace=wrap;rounded=0;" parent="1" vertex="1">
          <mxGeometry x="391" y="25" width="930" height="80" as="geometry" />
        </mxCell>
        <mxCell id="H_eOQc_jWsqqxqUB531G-18" style="edgeStyle=orthogonalEdgeStyle;rounded=0;orthogonalLoop=1;jettySize=auto;html=1;exitX=0.25;exitY=1;exitDx=0;exitDy=0;entryX=0.25;entryY=0;entryDx=0;entryDy=0;startArrow=classic;startFill=1;fillColor=#f5f5f5;strokeColor=#666666;" parent="1" source="H_eOQc_jWsqqxqUB531G-13" target="H_eOQc_jWsqqxqUB531G-2" edge="1">
          <mxGeometry relative="1" as="geometry">
            <Array as="points">
              <mxPoint x="818" y="605" />
              <mxPoint x="711" y="605" />
              <mxPoint x="711" y="865" />
              <mxPoint x="818" y="865" />
              <mxPoint x="818" y="955" />
            </Array>
          </mxGeometry>
        </mxCell>
        <mxCell id="H_eOQc_jWsqqxqUB531G-19" style="edgeStyle=orthogonalEdgeStyle;rounded=0;orthogonalLoop=1;jettySize=auto;html=1;exitX=0.5;exitY=1;exitDx=0;exitDy=0;entryX=0.5;entryY=0;entryDx=0;entryDy=0;startArrow=classic;startFill=1;fillColor=#f5f5f5;strokeColor=#666666;" parent="1" source="H_eOQc_jWsqqxqUB531G-13" target="H_eOQc_jWsqqxqUB531G-1" edge="1">
          <mxGeometry relative="1" as="geometry" />
        </mxCell>
        <mxCell id="H_eOQc_jWsqqxqUB531G-13" value="&lt;h1&gt;&lt;i&gt;Modem Router&lt;/i&gt;&lt;/h1&gt;&lt;p&gt;&lt;i&gt;Specs/descr: 4G + WiFi + BT + Gigabit Eth&lt;/i&gt;&lt;/p&gt;&lt;p&gt;&lt;i&gt;Model: RUTX12&lt;/i&gt;&lt;/p&gt;" style="text;html=1;spacing=5;spacingTop=-20;whiteSpace=wrap;overflow=hidden;rounded=0;fillColor=#f5f5f5;fontColor=#333333;strokeColor=#666666;" parent="1" vertex="1">
          <mxGeometry x="758" y="380" width="240" height="110" as="geometry" />
        </mxCell>
        <mxCell id="H_eOQc_jWsqqxqUB531G-3" style="edgeStyle=orthogonalEdgeStyle;rounded=0;orthogonalLoop=1;jettySize=auto;html=1;exitX=1;exitY=0.5;exitDx=0;exitDy=0;entryX=0;entryY=0.5;entryDx=0;entryDy=0;fillColor=#fff2cc;strokeColor=#d6b656;strokeWidth=3;" parent="1" source="pQORnAWpVIZ-AfUJZUiN-15" target="H_eOQc_jWsqqxqUB531G-1" edge="1">
          <mxGeometry relative="1" as="geometry" />
        </mxCell>
        <mxCell id="H_eOQc_jWsqqxqUB531G-42" style="edgeStyle=orthogonalEdgeStyle;rounded=0;orthogonalLoop=1;jettySize=auto;html=1;exitX=0;exitY=0.5;exitDx=0;exitDy=0;entryX=1;entryY=0.75;entryDx=0;entryDy=0;fillColor=#ffe6cc;strokeColor=#d79b00;" parent="1" source="H_eOQc_jWsqqxqUB531G-22" target="H_eOQc_jWsqqxqUB531G-2" edge="1">
          <mxGeometry relative="1" as="geometry" />
        </mxCell>
        <mxCell id="H_eOQc_jWsqqxqUB531G-22" value="&lt;h1&gt;&lt;i&gt;Depth Camera&lt;/i&gt;&lt;/h1&gt;&lt;p&gt;&lt;i&gt;Specs/descr: Depth camera&lt;/i&gt;&lt;/p&gt;&lt;p&gt;&lt;i&gt;Model: Intel D455&lt;/i&gt;&lt;/p&gt;" style="text;html=1;spacing=5;spacingTop=-20;whiteSpace=wrap;overflow=hidden;rounded=0;fillColor=#f5f5f5;fontColor=#333333;strokeColor=#666666;" parent="1" vertex="1">
          <mxGeometry x="1242" y="1115.5" width="240" height="110" as="geometry" />
        </mxCell>
        <mxCell id="H_eOQc_jWsqqxqUB531G-41" style="edgeStyle=orthogonalEdgeStyle;rounded=0;orthogonalLoop=1;jettySize=auto;html=1;exitX=0;exitY=0.5;exitDx=0;exitDy=0;entryX=1;entryY=0.5;entryDx=0;entryDy=0;fillColor=#ffe6cc;strokeColor=#d79b00;" parent="1" source="H_eOQc_jWsqqxqUB531G-23" target="H_eOQc_jWsqqxqUB531G-2" edge="1">
          <mxGeometry relative="1" as="geometry">
            <Array as="points">
              <mxPoint x="1242" y="1030" />
              <mxPoint x="1151" y="1030" />
              <mxPoint x="1151" y="1010" />
            </Array>
          </mxGeometry>
        </mxCell>
        <mxCell id="H_eOQc_jWsqqxqUB531G-23" value="&lt;h1&gt;&lt;i&gt;360deg Camera&lt;/i&gt;&lt;/h1&gt;&lt;p&gt;&lt;i&gt;Specs/descr: 360 degree view action camera&lt;/i&gt;&lt;/p&gt;&lt;p&gt;&lt;i&gt;Model: ONE-R Insta360&amp;nbsp;&lt;/i&gt;&lt;/p&gt;" style="text;html=1;spacing=5;spacingTop=-20;whiteSpace=wrap;overflow=hidden;rounded=0;fillColor=#f5f5f5;fontColor=#333333;strokeColor=#666666;" parent="1" vertex="1">
          <mxGeometry x="1242" y="985" width="240" height="110" as="geometry" />
        </mxCell>
        <mxCell id="6km66z4836kB4bicBuqt-1" style="edgeStyle=orthogonalEdgeStyle;rounded=0;orthogonalLoop=1;jettySize=auto;html=1;exitX=1;exitY=0.5;exitDx=0;exitDy=0;entryX=0;entryY=0.25;entryDx=0;entryDy=0;endArrow=none;endFill=0;startArrow=classic;startFill=1;" parent="1" source="H_eOQc_jWsqqxqUB531G-24" target="pQORnAWpVIZ-AfUJZUiN-14" edge="1">
          <mxGeometry relative="1" as="geometry" />
        </mxCell>
        <mxCell id="H_eOQc_jWsqqxqUB531G-24" value="&lt;h1&gt;&lt;i&gt;Flash Modules&lt;/i&gt;&lt;/h1&gt;&lt;p&gt;&lt;i&gt;Specs/descr: 6 camera flash modules&lt;/i&gt;&lt;/p&gt;&lt;p&gt;&lt;i&gt;Model: Inhouse design&lt;/i&gt;&lt;/p&gt;" style="text;html=1;spacing=5;spacingTop=-20;whiteSpace=wrap;overflow=hidden;rounded=0;fillColor=#f5f5f5;fontColor=#333333;strokeColor=#666666;" parent="1" vertex="1">
          <mxGeometry x="791" y="175" width="240" height="110" as="geometry" />
        </mxCell>
        <mxCell id="H_eOQc_jWsqqxqUB531G-39" style="edgeStyle=orthogonalEdgeStyle;rounded=0;orthogonalLoop=1;jettySize=auto;html=1;exitX=0;exitY=0.5;exitDx=0;exitDy=0;entryX=1;entryY=0.25;entryDx=0;entryDy=0;fillColor=#ffe6cc;strokeColor=#d79b00;" parent="1" source="H_eOQc_jWsqqxqUB531G-26" target="H_eOQc_jWsqqxqUB531G-2" edge="1">
          <mxGeometry relative="1" as="geometry">
            <Array as="points">
              <mxPoint x="1121" y="910" />
              <mxPoint x="1121" y="983" />
            </Array>
          </mxGeometry>
        </mxCell>
        <mxCell id="H_eOQc_jWsqqxqUB531G-26" value="&lt;h1&gt;&lt;i&gt;IMU Module&lt;/i&gt;&lt;/h1&gt;&lt;p&gt;&lt;i&gt;Specs/descr: Depth camera&lt;/i&gt;&lt;/p&gt;&lt;p&gt;&lt;i&gt;Model: XSENS? or Vectornav VN100-S&lt;/i&gt;&lt;/p&gt;" style="text;html=1;spacing=5;spacingTop=-20;whiteSpace=wrap;overflow=hidden;rounded=0;fillColor=#f5f5f5;fontColor=#333333;strokeColor=#666666;" parent="1" vertex="1">
          <mxGeometry x="1242" y="855" width="240" height="110" as="geometry" />
        </mxCell>
        <mxCell id="H_eOQc_jWsqqxqUB531G-40" style="edgeStyle=orthogonalEdgeStyle;rounded=0;orthogonalLoop=1;jettySize=auto;html=1;exitX=0;exitY=0.5;exitDx=0;exitDy=0;entryX=1;entryY=0;entryDx=0;entryDy=0;fillColor=#ffe6cc;strokeColor=#d79b00;" parent="1" source="H_eOQc_jWsqqxqUB531G-27" target="H_eOQc_jWsqqxqUB531G-2" edge="1">
          <mxGeometry relative="1" as="geometry">
            <Array as="points">
              <mxPoint x="1181" y="634" />
              <mxPoint x="1181" y="755" />
              <mxPoint x="1091" y="755" />
              <mxPoint x="1091" y="955" />
            </Array>
          </mxGeometry>
        </mxCell>
        <mxCell id="mR2TVfwb4jGVoqLYI3TS-39" style="edgeStyle=orthogonalEdgeStyle;rounded=0;orthogonalLoop=1;jettySize=auto;html=1;exitX=0;exitY=0.5;exitDx=0;exitDy=0;entryX=1;entryY=0.5;entryDx=0;entryDy=0;fillColor=#ffe6cc;strokeColor=#d79b00;" parent="1" source="H_eOQc_jWsqqxqUB531G-27" target="H_eOQc_jWsqqxqUB531G-1" edge="1">
          <mxGeometry relative="1" as="geometry">
            <Array as="points">
              <mxPoint x="1091" y="634" />
              <mxPoint x="1091" y="720" />
            </Array>
          </mxGeometry>
        </mxCell>
        <mxCell id="H_eOQc_jWsqqxqUB531G-27" value="&lt;h1&gt;&lt;i&gt;GPS Module&lt;/i&gt;&lt;/h1&gt;&lt;p&gt;&lt;i&gt;Specs/descr: Depth camera&lt;/i&gt;&lt;/p&gt;&lt;p&gt;&lt;i&gt;Model: XSENS GNSS RTK or Drotek DPO601&lt;/i&gt;&lt;/p&gt;" style="text;html=1;spacing=5;spacingTop=-20;whiteSpace=wrap;overflow=hidden;rounded=0;fillColor=#f5f5f5;fontColor=#333333;strokeColor=#666666;" parent="1" vertex="1">
          <mxGeometry x="1242" y="579" width="240" height="110" as="geometry" />
        </mxCell>
        <mxCell id="H_eOQc_jWsqqxqUB531G-33" style="edgeStyle=orthogonalEdgeStyle;rounded=0;orthogonalLoop=1;jettySize=auto;html=1;exitX=0.5;exitY=1;exitDx=0;exitDy=0;entryX=1;entryY=0.5;entryDx=0;entryDy=0;endArrow=none;endFill=0;" parent="1" source="H_eOQc_jWsqqxqUB531G-31" target="H_eOQc_jWsqqxqUB531G-27" edge="1">
          <mxGeometry relative="1" as="geometry" />
        </mxCell>
        <mxCell id="H_eOQc_jWsqqxqUB531G-31" value="&lt;h1 style=&quot;border-color: var(--border-color);&quot;&gt;&lt;i style=&quot;border-color: var(--border-color);&quot;&gt;GPS Antenna&lt;/i&gt;&lt;/h1&gt;&lt;h1&gt;&lt;p style=&quot;border-color: var(--border-color); font-size: 12px; font-weight: 400;&quot;&gt;&lt;i style=&quot;border-color: var(--border-color);&quot;&gt;Specs/descr: High spec GPS anatenna&lt;/i&gt;&lt;/p&gt;&lt;p style=&quot;border-color: var(--border-color); font-size: 12px; font-weight: 400;&quot;&gt;&lt;i style=&quot;border-color: var(--border-color);&quot;&gt;Model: ?&lt;/i&gt;&lt;/p&gt;&lt;/h1&gt;" style="text;html=1;spacing=5;spacingTop=-20;whiteSpace=wrap;overflow=hidden;rounded=0;fillColor=#f5f5f5;fontColor=#333333;strokeColor=#666666;" parent="1" vertex="1">
          <mxGeometry x="1451" y="170" width="140" height="140" as="geometry" />
        </mxCell>
        <mxCell id="H_eOQc_jWsqqxqUB531G-37" style="edgeStyle=orthogonalEdgeStyle;rounded=0;orthogonalLoop=1;jettySize=auto;html=1;exitX=0;exitY=0.5;exitDx=0;exitDy=0;entryX=0;entryY=0.25;entryDx=0;entryDy=0;startArrow=none;startFill=0;endArrow=none;endFill=0;" parent="1" source="H_eOQc_jWsqqxqUB531G-34" target="H_eOQc_jWsqqxqUB531G-13" edge="1">
          <mxGeometry relative="1" as="geometry">
            <Array as="points">
              <mxPoint x="1210" y="240" />
              <mxPoint x="1210" y="345" />
              <mxPoint x="738" y="345" />
              <mxPoint x="738" y="408" />
            </Array>
          </mxGeometry>
        </mxCell>
        <mxCell id="H_eOQc_jWsqqxqUB531G-34" value="&lt;h1 style=&quot;border-color: var(--border-color);&quot;&gt;&lt;i style=&quot;border-color: var(--border-color);&quot;&gt;2.4 GHz Antenna&lt;/i&gt;&lt;/h1&gt;&lt;h1&gt;&lt;p style=&quot;border-color: var(--border-color); font-size: 12px; font-weight: 400;&quot;&gt;&lt;i style=&quot;border-color: var(--border-color);&quot;&gt;Specs/descr: High spec 2.4 GHz Wifi anatenna&lt;/i&gt;&lt;/p&gt;&lt;p style=&quot;border-color: var(--border-color); font-size: 12px; font-weight: 400;&quot;&gt;&lt;i style=&quot;border-color: var(--border-color);&quot;&gt;Model: ?&lt;/i&gt;&lt;/p&gt;&lt;/h1&gt;" style="text;html=1;spacing=5;spacingTop=-20;whiteSpace=wrap;overflow=hidden;rounded=0;fillColor=#f5f5f5;fontColor=#333333;strokeColor=#666666;" parent="1" vertex="1">
          <mxGeometry x="1251" y="170" width="140" height="140" as="geometry" />
        </mxCell>
        <mxCell id="mR2TVfwb4jGVoqLYI3TS-20" value="" style="group" parent="1" vertex="1" connectable="0">
          <mxGeometry x="151" y="165" width="240" height="220" as="geometry" />
        </mxCell>
        <mxCell id="mR2TVfwb4jGVoqLYI3TS-54" value="" style="group" parent="mR2TVfwb4jGVoqLYI3TS-20" vertex="1" connectable="0">
          <mxGeometry width="240" height="220" as="geometry" />
        </mxCell>
        <mxCell id="pQORnAWpVIZ-AfUJZUiN-7" value="&lt;h1&gt;&lt;i&gt;Contactor box&lt;/i&gt;&lt;/h1&gt;&lt;p&gt;&lt;i&gt;Specs/descr: Contains 12V coil contactor and battery bus bar. 25 Ohm high power resistor to limit current through coil?&lt;/i&gt;&lt;/p&gt;&lt;p&gt;&lt;i&gt;Model: Littlefuse DCNI-EV100-BS&lt;/i&gt;&lt;/p&gt;" style="text;html=1;spacing=5;spacingTop=-20;whiteSpace=wrap;overflow=hidden;rounded=0;fillColor=#f5f5f5;fontColor=#333333;strokeColor=#666666;" parent="mR2TVfwb4jGVoqLYI3TS-54" vertex="1">
          <mxGeometry width="240" height="220" as="geometry" />
        </mxCell>
        <mxCell id="mR2TVfwb4jGVoqLYI3TS-42" value="" style="group;rotation=90;" parent="mR2TVfwb4jGVoqLYI3TS-54" vertex="1" connectable="0">
          <mxGeometry x="92.5" y="130" width="62.5" height="67.5" as="geometry" />
        </mxCell>
        <mxCell id="mR2TVfwb4jGVoqLYI3TS-43" value="" style="rounded=0;whiteSpace=wrap;html=1;fillColor=none;dashed=1;dashPattern=1 1;strokeWidth=2;rotation=90;points=[[0,0,0,0,0],[0,0.25,0,0,0],[0,0.5,0,0,0],[0,0.75,0,0,0],[0,1,0,0,0],[0.5,0,0,0,0],[0.5,1,0,0,0],[1,0,0,0,0],[1,0.25,0,0,0],[1,0.5,0,0,0],[1,0.75,0,0,0],[1,1,0,0,0]];" parent="mR2TVfwb4jGVoqLYI3TS-42" vertex="1">
          <mxGeometry x="-7.5" y="7.5" width="70" height="60" as="geometry" />
        </mxCell>
        <mxCell id="mR2TVfwb4jGVoqLYI3TS-45" style="edgeStyle=orthogonalEdgeStyle;rounded=0;orthogonalLoop=1;jettySize=auto;html=1;exitX=0;exitY=1;exitDx=0;exitDy=0;exitPerimeter=0;endArrow=block;endFill=1;strokeWidth=4;" parent="mR2TVfwb4jGVoqLYI3TS-42" source="mR2TVfwb4jGVoqLYI3TS-46" edge="1">
          <mxGeometry relative="1" as="geometry">
            <mxPoint x="-29.99999999999997" y="81" as="targetPoint" />
            <Array as="points">
              <mxPoint x="-30" y="58" />
            </Array>
          </mxGeometry>
        </mxCell>
        <mxCell id="mR2TVfwb4jGVoqLYI3TS-44" value="" style="html=1;shape=mxgraph.electrical.electro-mechanical.singleSwitch;aspect=fixed;elSwitchState=off;rotation=0;strokeWidth=2;" parent="mR2TVfwb4jGVoqLYI3TS-42" vertex="1">
          <mxGeometry x="-3" y="6" width="60" height="16" as="geometry" />
        </mxCell>
        <mxCell id="mR2TVfwb4jGVoqLYI3TS-46" value="" style="pointerEvents=1;verticalLabelPosition=bottom;shadow=0;dashed=0;align=center;html=1;verticalAlign=top;shape=mxgraph.electrical.inductors.inductor_3;rotation=0;strokeWidth=2;" parent="mR2TVfwb4jGVoqLYI3TS-42" vertex="1">
          <mxGeometry x="-3" y="50" width="60" height="8" as="geometry" />
        </mxCell>
        <mxCell id="mR2TVfwb4jGVoqLYI3TS-28" style="edgeStyle=orthogonalEdgeStyle;rounded=0;orthogonalLoop=1;jettySize=auto;html=1;exitX=1;exitY=0.8;exitDx=0;exitDy=0;entryX=0;entryY=0.5;entryDx=0;entryDy=0;fillColor=#f8cecc;strokeColor=#b85450;strokeWidth=4;" parent="1" source="mR2TVfwb4jGVoqLYI3TS-27" target="pQORnAWpVIZ-AfUJZUiN-15" edge="1">
          <mxGeometry relative="1" as="geometry" />
        </mxCell>
        <mxCell id="mR2TVfwb4jGVoqLYI3TS-57" style="edgeStyle=orthogonalEdgeStyle;rounded=0;orthogonalLoop=1;jettySize=auto;html=1;exitX=1;exitY=0.8;exitDx=0;exitDy=0;entryX=0;entryY=0.5;entryDx=0;entryDy=0;fillColor=#f8cecc;strokeColor=#b85450;strokeWidth=4;startArrow=oval;startFill=1;dashed=1;dashPattern=1 1;" parent="1" source="mR2TVfwb4jGVoqLYI3TS-44" target="pQORnAWpVIZ-AfUJZUiN-10" edge="1">
          <mxGeometry relative="1" as="geometry">
            <Array as="points">
              <mxPoint x="421" y="314" />
              <mxPoint x="421" y="230" />
            </Array>
          </mxGeometry>
        </mxCell>
        <mxCell id="mR2TVfwb4jGVoqLYI3TS-37" value="" style="group" parent="1" vertex="1" connectable="0">
          <mxGeometry x="341" y="455" width="81" height="70" as="geometry" />
        </mxCell>
        <mxCell id="mR2TVfwb4jGVoqLYI3TS-24" value="" style="pointerEvents=1;verticalLabelPosition=bottom;shadow=0;dashed=0;align=center;html=1;verticalAlign=top;shape=mxgraph.electrical.resistors.resistor_1;rotation=90;" parent="mR2TVfwb4jGVoqLYI3TS-37" vertex="1">
          <mxGeometry x="-25" y="25" width="70" height="20" as="geometry" />
        </mxCell>
        <mxCell id="mR2TVfwb4jGVoqLYI3TS-36" value="&lt;b&gt;25 Ohm&lt;/b&gt;" style="text;html=1;strokeColor=none;fillColor=none;align=center;verticalAlign=middle;whiteSpace=wrap;rounded=0;" parent="mR2TVfwb4jGVoqLYI3TS-37" vertex="1">
          <mxGeometry x="21" y="20" width="60" height="30" as="geometry" />
        </mxCell>
        <mxCell id="mR2TVfwb4jGVoqLYI3TS-60" value="" style="group" parent="1" vertex="1" connectable="0">
          <mxGeometry x="422" y="425" width="140" height="170" as="geometry" />
        </mxCell>
        <mxCell id="H_eOQc_jWsqqxqUB531G-8" value="&lt;h1&gt;&lt;i&gt;E-stop&lt;/i&gt;&lt;/h1&gt;&lt;p&gt;&lt;i&gt;Specs/descr: Emergency stop button&lt;/i&gt;&lt;/p&gt;" style="text;html=1;spacing=5;spacingTop=-20;whiteSpace=wrap;overflow=hidden;rounded=0;fillColor=#f5f5f5;fontColor=#333333;strokeColor=#666666;" parent="mR2TVfwb4jGVoqLYI3TS-60" vertex="1">
          <mxGeometry width="140" height="170" as="geometry" />
        </mxCell>
        <mxCell id="mR2TVfwb4jGVoqLYI3TS-21" value="" style="pointerEvents=1;verticalLabelPosition=bottom;shadow=0;dashed=0;align=center;html=1;verticalAlign=top;shape=mxgraph.electrical.electro-mechanical.pushbuttonBreak2;elSwitchState=off;" parent="mR2TVfwb4jGVoqLYI3TS-60" vertex="1">
          <mxGeometry x="32.5" y="99" width="75" height="40" as="geometry" />
        </mxCell>
        <mxCell id="mR2TVfwb4jGVoqLYI3TS-61" style="edgeStyle=orthogonalEdgeStyle;rounded=0;orthogonalLoop=1;jettySize=auto;html=1;exitX=0;exitY=0.8;exitDx=0;exitDy=0;entryX=1;entryY=0.5;entryDx=0;entryDy=0;entryPerimeter=0;endArrow=none;endFill=0;fillColor=#fff2cc;strokeColor=#d6b656;strokeWidth=3;" parent="1" source="mR2TVfwb4jGVoqLYI3TS-21" target="mR2TVfwb4jGVoqLYI3TS-24" edge="1">
          <mxGeometry relative="1" as="geometry" />
        </mxCell>
        <mxCell id="mR2TVfwb4jGVoqLYI3TS-63" style="edgeStyle=orthogonalEdgeStyle;rounded=0;orthogonalLoop=1;jettySize=auto;html=1;exitX=1;exitY=1;exitDx=0;exitDy=0;exitPerimeter=0;entryX=0;entryY=0.5;entryDx=0;entryDy=0;entryPerimeter=0;endArrow=none;endFill=0;startArrow=classic;startFill=1;fillColor=#fff2cc;strokeColor=#d6b656;strokeWidth=3;" parent="1" source="mR2TVfwb4jGVoqLYI3TS-46" target="mR2TVfwb4jGVoqLYI3TS-24" edge="1">
          <mxGeometry relative="1" as="geometry">
            <Array as="points">
              <mxPoint x="351" y="353" />
            </Array>
          </mxGeometry>
        </mxCell>
        <mxCell id="mR2TVfwb4jGVoqLYI3TS-64" style="edgeStyle=orthogonalEdgeStyle;rounded=0;orthogonalLoop=1;jettySize=auto;html=1;exitX=1;exitY=0.8;exitDx=0;exitDy=0;entryX=1;entryY=0;entryDx=0;entryDy=0;endArrow=none;endFill=0;startArrow=classic;startFill=1;fillColor=#fff2cc;strokeColor=#d6b656;strokeWidth=3;" parent="1" source="mR2TVfwb4jGVoqLYI3TS-21" target="pQORnAWpVIZ-AfUJZUiN-15" edge="1">
          <mxGeometry relative="1" as="geometry">
            <Array as="points">
              <mxPoint x="641" y="556" />
              <mxPoint x="641" y="666" />
            </Array>
          </mxGeometry>
        </mxCell>
        <mxCell id="mR2TVfwb4jGVoqLYI3TS-65" style="edgeStyle=orthogonalEdgeStyle;rounded=0;orthogonalLoop=1;jettySize=auto;html=1;exitX=1;exitY=0.8;exitDx=0;exitDy=0;entryX=0;entryY=0.5;entryDx=0;entryDy=0;fillColor=#f8cecc;strokeColor=#b85450;strokeWidth=4;dashed=1;dashPattern=1 1;" parent="1" source="mR2TVfwb4jGVoqLYI3TS-44" target="pQORnAWpVIZ-AfUJZUiN-5" edge="1">
          <mxGeometry relative="1" as="geometry">
            <mxPoint x="161" y="785" as="targetPoint" />
            <Array as="points">
              <mxPoint x="311" y="314" />
              <mxPoint x="311" y="335" />
              <mxPoint x="131" y="335" />
              <mxPoint x="131" y="990" />
            </Array>
          </mxGeometry>
        </mxCell>
        <mxCell id="mR2TVfwb4jGVoqLYI3TS-66" style="edgeStyle=orthogonalEdgeStyle;rounded=0;orthogonalLoop=1;jettySize=auto;html=1;exitX=0;exitY=0.8;exitDx=0;exitDy=0;entryX=0;entryY=0.8;entryDx=0;entryDy=0;fillColor=#f8cecc;strokeColor=#b85450;strokeWidth=4;" parent="1" source="mR2TVfwb4jGVoqLYI3TS-27" target="mR2TVfwb4jGVoqLYI3TS-44" edge="1">
          <mxGeometry relative="1" as="geometry">
            <Array as="points">
              <mxPoint x="101" y="721" />
              <mxPoint x="101" y="314" />
            </Array>
          </mxGeometry>
        </mxCell>
        <mxCell id="mR2TVfwb4jGVoqLYI3TS-70" value="&lt;font style=&quot;font-size: 36px;&quot;&gt;PLATFORM&lt;/font&gt;" style="text;html=1;strokeColor=none;fillColor=none;align=center;verticalAlign=middle;whiteSpace=wrap;rounded=0;" parent="1" vertex="1">
          <mxGeometry x="1501" y="845" width="200" height="30" as="geometry" />
        </mxCell>
        <mxCell id="mR2TVfwb4jGVoqLYI3TS-71" value="&lt;font style=&quot;font-size: 36px;&quot;&gt;PAYLOAD&lt;/font&gt;" style="text;html=1;strokeColor=none;fillColor=none;align=center;verticalAlign=middle;whiteSpace=wrap;rounded=0;" parent="1" vertex="1">
          <mxGeometry x="1531" y="795" width="170" height="30" as="geometry" />
        </mxCell>
        <mxCell id="mR2TVfwb4jGVoqLYI3TS-74" style="edgeStyle=orthogonalEdgeStyle;rounded=0;orthogonalLoop=1;jettySize=auto;html=1;exitX=0;exitY=0.8;exitDx=0;exitDy=0;entryX=0.25;entryY=0;entryDx=0;entryDy=0;fillColor=#f8cecc;strokeColor=#b85450;strokeWidth=4;endArrow=none;endFill=0;startArrow=classic;startFill=1;" parent="1" source="mR2TVfwb4jGVoqLYI3TS-44" target="pQORnAWpVIZ-AfUJZUiN-2" edge="1">
          <mxGeometry relative="1" as="geometry">
            <mxPoint x="-33.3478260869565" y="685" as="targetPoint" />
            <Array as="points">
              <mxPoint x="190" y="314" />
              <mxPoint x="190" y="305" />
              <mxPoint x="81" y="305" />
              <mxPoint x="81" y="1035" />
              <mxPoint x="161" y="1035" />
            </Array>
          </mxGeometry>
        </mxCell>
        <mxCell id="0eNmRg6RS3BjPJenTYzM-1" value="" style="endArrow=none;dashed=1;html=1;rounded=0;strokeWidth=3;" parent="1" edge="1">
          <mxGeometry width="50" height="50" relative="1" as="geometry">
            <mxPoint x="20" y="833.18" as="sourcePoint" />
            <mxPoint x="1750" y="833.18" as="targetPoint" />
          </mxGeometry>
        </mxCell>
        <mxCell id="p2tnEPX4SHj_y7pH9gBp-1" value="&lt;h1&gt;&lt;i&gt;Recon Cameras&lt;/i&gt;&lt;/h1&gt;&lt;p&gt;&lt;i&gt;Specs/descr: Main 6 reconstruction cameras&lt;/i&gt;&lt;/p&gt;&lt;p&gt;&lt;i&gt;Model: Computar?&lt;/i&gt;&lt;/p&gt;" style="text;html=1;spacing=5;spacingTop=-20;whiteSpace=wrap;overflow=hidden;rounded=0;fillColor=#f5f5f5;fontColor=#333333;strokeColor=#666666;" vertex="1" parent="1">
          <mxGeometry x="500" y="1390" width="240" height="110" as="geometry" />
        </mxCell>
      </root>
    </mxGraphModel>
  </diagram>
  <diagram name="Matilda (V3)" id="fAlBLe7E_x-xGLMHp0DX">
    <mxGraphModel dx="1193" dy="784" grid="1" gridSize="10" guides="1" tooltips="1" connect="1" arrows="1" fold="1" page="1" pageScale="1" pageWidth="827" pageHeight="1169" math="0" shadow="0">
      <root>
        <mxCell id="D8D9cCsM-JOo3FR58DQU-0" />
        <mxCell id="D8D9cCsM-JOo3FR58DQU-1" parent="D8D9cCsM-JOo3FR58DQU-0" />
        <mxCell id="D8D9cCsM-JOo3FR58DQU-2" value="" style="rounded=0;whiteSpace=wrap;html=1;fillColor=none;fontColor=#333333;strokeColor=#666666;dashed=1;strokeWidth=2;" parent="D8D9cCsM-JOo3FR58DQU-1" vertex="1">
          <mxGeometry x="41" y="835" width="1660" as="geometry" />
        </mxCell>
        <mxCell id="D8D9cCsM-JOo3FR58DQU-4" value="" style="group" parent="D8D9cCsM-JOo3FR58DQU-1" vertex="1" connectable="0">
          <mxGeometry x="230" y="615.5" width="150" height="170" as="geometry" />
        </mxCell>
        <mxCell id="D8D9cCsM-JOo3FR58DQU-5" value="" style="group" parent="D8D9cCsM-JOo3FR58DQU-4" vertex="1" connectable="0">
          <mxGeometry width="150" height="170" as="geometry" />
        </mxCell>
        <mxCell id="D8D9cCsM-JOo3FR58DQU-6" value="&lt;h1&gt;&lt;i style=&quot;background-color: initial;&quot;&gt;Battery Switch&amp;nbsp;&lt;/i&gt;&lt;/h1&gt;&lt;h1&gt;&lt;br&gt;&lt;/h1&gt;" style="text;html=1;spacing=5;spacingTop=-20;whiteSpace=wrap;overflow=hidden;rounded=0;fillColor=#f5f5f5;fontColor=#333333;strokeColor=#666666;" parent="D8D9cCsM-JOo3FR58DQU-5" vertex="1">
          <mxGeometry width="140" height="170" as="geometry" />
        </mxCell>
        <mxCell id="D8D9cCsM-JOo3FR58DQU-7" value="" style="html=1;shape=mxgraph.electrical.electro-mechanical.singleSwitch;aspect=fixed;elSwitchState=off;rotation=0;strokeWidth=1;" parent="D8D9cCsM-JOo3FR58DQU-5" vertex="1">
          <mxGeometry x="30" y="88.84000000000003" width="80" height="21.33" as="geometry" />
        </mxCell>
        <mxCell id="pRTrayWc3h6vLMD69WKc-1" style="edgeStyle=orthogonalEdgeStyle;rounded=0;orthogonalLoop=1;jettySize=auto;html=1;exitX=1;exitY=0.5;exitDx=0;exitDy=0;entryX=0;entryY=0.5;entryDx=0;entryDy=0;fillColor=#f8cecc;strokeColor=#b85450;strokeWidth=4;endArrow=none;endFill=0;" parent="D8D9cCsM-JOo3FR58DQU-1" source="D8D9cCsM-JOo3FR58DQU-8" target="TSPZAk-_MEQMJ_LYUPrH-0" edge="1">
          <mxGeometry relative="1" as="geometry" />
        </mxCell>
        <mxCell id="D8D9cCsM-JOo3FR58DQU-8" value="&lt;h1&gt;48V Battery&lt;/h1&gt;&lt;p&gt;&lt;i&gt;Specs/descr: Lithium deep cycle&lt;/i&gt;&lt;/p&gt;&lt;p&gt;&lt;i&gt;Model: ?&lt;/i&gt;&lt;/p&gt;" style="text;html=1;spacing=5;spacingTop=-20;whiteSpace=wrap;overflow=hidden;rounded=0;fillColor=#f8cecc;strokeColor=#b85450;strokeWidth=3;" parent="D8D9cCsM-JOo3FR58DQU-1" vertex="1">
          <mxGeometry x="90" y="1155" width="240" height="110" as="geometry" />
        </mxCell>
        <mxCell id="D8D9cCsM-JOo3FR58DQU-9" value="&lt;h1&gt;&lt;i&gt;Module&lt;/i&gt;&lt;/h1&gt;&lt;p&gt;&lt;i&gt;Specs/descr:&lt;/i&gt;&lt;/p&gt;&lt;p&gt;&lt;i&gt;Model:&lt;/i&gt;&lt;/p&gt;" style="text;html=1;spacing=5;spacingTop=-20;whiteSpace=wrap;overflow=hidden;rounded=0;fillColor=#f5f5f5;fontColor=#333333;strokeColor=#666666;" parent="D8D9cCsM-JOo3FR58DQU-1" vertex="1">
          <mxGeometry x="1431" y="10" width="240" height="110" as="geometry" />
        </mxCell>
        <mxCell id="D8D9cCsM-JOo3FR58DQU-10" style="edgeStyle=orthogonalEdgeStyle;rounded=0;orthogonalLoop=1;jettySize=auto;html=1;exitX=1;exitY=0.5;exitDx=0;exitDy=0;entryX=0;entryY=0.5;entryDx=0;entryDy=0;strokeWidth=4;" parent="D8D9cCsM-JOo3FR58DQU-1" source="D8D9cCsM-JOo3FR58DQU-11" target="D8D9cCsM-JOo3FR58DQU-21" edge="1">
          <mxGeometry relative="1" as="geometry" />
        </mxCell>
        <mxCell id="D8D9cCsM-JOo3FR58DQU-11" value="&lt;h1&gt;&lt;i&gt;Motor controller&lt;/i&gt;&lt;/h1&gt;&lt;p&gt;&lt;i&gt;Specs/descr: 4 BLDC motor controllers.&lt;/i&gt;&lt;/p&gt;&lt;p&gt;&lt;i&gt;Model: O-Drive?&lt;/i&gt;&lt;/p&gt;" style="text;html=1;spacing=5;spacingTop=-20;whiteSpace=wrap;overflow=hidden;rounded=0;fillColor=#f5f5f5;fontColor=#333333;strokeColor=#666666;" parent="D8D9cCsM-JOo3FR58DQU-1" vertex="1">
          <mxGeometry x="211" y="1005" width="240" height="110" as="geometry" />
        </mxCell>
        <mxCell id="D8D9cCsM-JOo3FR58DQU-12" style="edgeStyle=orthogonalEdgeStyle;rounded=0;orthogonalLoop=1;jettySize=auto;html=1;exitX=1;exitY=0.5;exitDx=0;exitDy=0;entryX=0;entryY=0.5;entryDx=0;entryDy=0;fillColor=#d5e8d4;strokeColor=#82b366;strokeWidth=3;" parent="D8D9cCsM-JOo3FR58DQU-1" source="D8D9cCsM-JOo3FR58DQU-13" target="D8D9cCsM-JOo3FR58DQU-31" edge="1">
          <mxGeometry relative="1" as="geometry">
            <Array as="points">
              <mxPoint x="721" y="240" />
              <mxPoint x="721" y="240" />
            </Array>
          </mxGeometry>
        </mxCell>
        <mxCell id="D8D9cCsM-JOo3FR58DQU-13" value="&lt;h1&gt;&lt;i style=&quot;background-color: initial;&quot;&gt;16V Power supply&lt;br&gt;&lt;/i&gt;&lt;i style=&quot;background-color: initial; font-size: 12px; font-weight: normal;&quot;&gt;Specs/descr: DCDC converter&lt;/i&gt;&lt;/h1&gt;&lt;p&gt;&lt;i&gt;Model: TDK-Lambda i7a DCDC converter&lt;/i&gt;&lt;/p&gt;" style="text;html=1;spacing=5;spacingTop=-20;whiteSpace=wrap;overflow=hidden;rounded=0;fillColor=#d5e8d4;strokeColor=#82b366;strokeWidth=3;" parent="D8D9cCsM-JOo3FR58DQU-1" vertex="1">
          <mxGeometry x="481" y="175" width="240" height="110" as="geometry" />
        </mxCell>
        <mxCell id="D8D9cCsM-JOo3FR58DQU-15" value="&lt;h1&gt;&lt;i&gt;Recon Cameras&lt;/i&gt;&lt;/h1&gt;&lt;p&gt;&lt;i&gt;Specs/descr: Main 6 IP cameras for image reconstruction.&lt;/i&gt;&lt;/p&gt;&lt;p&gt;&lt;i&gt;Model: ?&lt;/i&gt;&lt;/p&gt;" style="text;html=1;spacing=5;spacingTop=-20;whiteSpace=wrap;overflow=hidden;rounded=0;fillColor=#f5f5f5;fontColor=#333333;strokeColor=#666666;" parent="D8D9cCsM-JOo3FR58DQU-1" vertex="1">
          <mxGeometry x="1222" y="375" width="240" height="110" as="geometry" />
        </mxCell>
        <mxCell id="D8D9cCsM-JOo3FR58DQU-16" style="edgeStyle=orthogonalEdgeStyle;rounded=0;orthogonalLoop=1;jettySize=auto;html=1;exitX=1;exitY=0.5;exitDx=0;exitDy=0;entryX=0;entryY=0.5;entryDx=0;entryDy=0;fillColor=#fff2cc;strokeColor=#d6b656;strokeWidth=3;" parent="D8D9cCsM-JOo3FR58DQU-1" source="TSPZAk-_MEQMJ_LYUPrH-2" target="D8D9cCsM-JOo3FR58DQU-20" edge="1">
          <mxGeometry relative="1" as="geometry">
            <Array as="points">
              <mxPoint x="751" y="920" />
              <mxPoint x="751" y="1010" />
            </Array>
            <mxPoint x="611" y="1009" as="sourcePoint" />
          </mxGeometry>
        </mxCell>
        <mxCell id="D8D9cCsM-JOo3FR58DQU-17" style="edgeStyle=orthogonalEdgeStyle;rounded=0;orthogonalLoop=1;jettySize=auto;html=1;exitX=1;exitY=0.25;exitDx=0;exitDy=0;entryX=0;entryY=0.5;entryDx=0;entryDy=0;fillColor=#fff2cc;strokeColor=#d6b656;strokeWidth=3;" parent="D8D9cCsM-JOo3FR58DQU-1" source="D8D9cCsM-JOo3FR58DQU-18" target="D8D9cCsM-JOo3FR58DQU-25" edge="1">
          <mxGeometry relative="1" as="geometry">
            <Array as="points">
              <mxPoint x="611" y="715" />
              <mxPoint x="661" y="715" />
              <mxPoint x="661" y="435" />
            </Array>
          </mxGeometry>
        </mxCell>
        <mxCell id="D8D9cCsM-JOo3FR58DQU-18" value="&lt;h1&gt;&lt;i style=&quot;background-color: initial;&quot;&gt;19V Power supply&lt;br&gt;&lt;/i&gt;&lt;i style=&quot;background-color: initial; font-size: 12px; font-weight: normal;&quot;&gt;Specs/descr: DCDC converter&lt;/i&gt;&lt;/h1&gt;&lt;p&gt;&lt;i style=&quot;border-color: var(--border-color);&quot;&gt;Model: TDK-Lambda i7a DCDC converter&lt;/i&gt;&lt;br&gt;&lt;/p&gt;" style="text;html=1;spacing=5;spacingTop=-20;whiteSpace=wrap;overflow=hidden;rounded=0;fillColor=#fff2cc;strokeColor=#d6b656;strokeWidth=3;" parent="D8D9cCsM-JOo3FR58DQU-1" vertex="1">
          <mxGeometry x="371" y="665.5" width="240" height="110" as="geometry" />
        </mxCell>
        <mxCell id="D8D9cCsM-JOo3FR58DQU-19" value="&lt;h1&gt;&lt;i&gt;Payload NUC&lt;/i&gt;&lt;/h1&gt;&lt;p&gt;&lt;i&gt;Specs/descr: Camera processing&lt;/i&gt;&lt;/p&gt;&lt;p&gt;&lt;i&gt;Model: ?&lt;/i&gt;&lt;/p&gt;" style="text;html=1;spacing=5;spacingTop=-20;whiteSpace=wrap;overflow=hidden;rounded=0;fillColor=#f5f5f5;fontColor=#333333;strokeColor=#666666;" parent="D8D9cCsM-JOo3FR58DQU-1" vertex="1">
          <mxGeometry x="748" y="695" width="240" height="110" as="geometry" />
        </mxCell>
        <mxCell id="D8D9cCsM-JOo3FR58DQU-20" value="&lt;h1&gt;&lt;i&gt;Platform NUC&lt;/i&gt;&lt;/h1&gt;&lt;p&gt;&lt;i&gt;Specs/descr: Navigation processing&lt;/i&gt;&lt;/p&gt;&lt;p&gt;&lt;i&gt;Model: ?&lt;/i&gt;&lt;/p&gt;" style="text;html=1;spacing=5;spacingTop=-20;whiteSpace=wrap;overflow=hidden;rounded=0;fillColor=#f5f5f5;fontColor=#333333;strokeColor=#666666;" parent="D8D9cCsM-JOo3FR58DQU-1" vertex="1">
          <mxGeometry x="801" y="955" width="240" height="110" as="geometry" />
        </mxCell>
        <mxCell id="D8D9cCsM-JOo3FR58DQU-21" value="&lt;h1&gt;&lt;i&gt;Motors&lt;/i&gt;&lt;/h1&gt;&lt;p&gt;&lt;i&gt;Specs/descr: Four drive BLDC motors&lt;/i&gt;&lt;/p&gt;&lt;p&gt;&lt;i&gt;Model: ?&lt;/i&gt;&lt;/p&gt;" style="text;html=1;spacing=5;spacingTop=-20;whiteSpace=wrap;overflow=hidden;rounded=0;fillColor=#f5f5f5;fontColor=#333333;strokeColor=#666666;" parent="D8D9cCsM-JOo3FR58DQU-1" vertex="1">
          <mxGeometry x="481" y="995" width="240" height="130" as="geometry" />
        </mxCell>
        <mxCell id="D8D9cCsM-JOo3FR58DQU-22" value="&lt;b&gt;&lt;font style=&quot;font-size: 36px;&quot;&gt;Maaratech Tree/Plant Reconstruction Rover: Matilda&lt;br&gt;Electrical Architecture&lt;br&gt;&lt;/font&gt;&lt;/b&gt;" style="text;html=1;strokeColor=none;fillColor=none;align=center;verticalAlign=middle;whiteSpace=wrap;rounded=0;" parent="D8D9cCsM-JOo3FR58DQU-1" vertex="1">
          <mxGeometry x="381" y="25" width="930" height="80" as="geometry" />
        </mxCell>
        <mxCell id="D8D9cCsM-JOo3FR58DQU-23" style="edgeStyle=orthogonalEdgeStyle;rounded=0;orthogonalLoop=1;jettySize=auto;html=1;exitX=0.25;exitY=1;exitDx=0;exitDy=0;entryX=0.25;entryY=0;entryDx=0;entryDy=0;startArrow=classic;startFill=1;fillColor=#f5f5f5;strokeColor=#666666;" parent="D8D9cCsM-JOo3FR58DQU-1" source="D8D9cCsM-JOo3FR58DQU-25" target="D8D9cCsM-JOo3FR58DQU-20" edge="1">
          <mxGeometry relative="1" as="geometry">
            <Array as="points">
              <mxPoint x="808" y="605" />
              <mxPoint x="701" y="605" />
              <mxPoint x="701" y="865" />
              <mxPoint x="861" y="865" />
            </Array>
          </mxGeometry>
        </mxCell>
        <mxCell id="D8D9cCsM-JOo3FR58DQU-24" style="edgeStyle=orthogonalEdgeStyle;rounded=0;orthogonalLoop=1;jettySize=auto;html=1;exitX=0.5;exitY=1;exitDx=0;exitDy=0;entryX=0.5;entryY=0;entryDx=0;entryDy=0;startArrow=classic;startFill=1;fillColor=#f5f5f5;strokeColor=#666666;" parent="D8D9cCsM-JOo3FR58DQU-1" source="D8D9cCsM-JOo3FR58DQU-25" target="D8D9cCsM-JOo3FR58DQU-19" edge="1">
          <mxGeometry relative="1" as="geometry" />
        </mxCell>
        <mxCell id="D8D9cCsM-JOo3FR58DQU-25" value="&lt;h1&gt;&lt;i&gt;Modem Router&lt;/i&gt;&lt;/h1&gt;&lt;p&gt;&lt;i&gt;Specs/descr: 4G + WiFi + BT + Gigabit Eth&lt;/i&gt;&lt;/p&gt;&lt;p&gt;&lt;i&gt;Model: RUTX12&lt;/i&gt;&lt;/p&gt;" style="text;html=1;spacing=5;spacingTop=-20;whiteSpace=wrap;overflow=hidden;rounded=0;fillColor=#f5f5f5;fontColor=#333333;strokeColor=#666666;" parent="D8D9cCsM-JOo3FR58DQU-1" vertex="1">
          <mxGeometry x="748" y="380" width="240" height="110" as="geometry" />
        </mxCell>
        <mxCell id="D8D9cCsM-JOo3FR58DQU-26" style="edgeStyle=orthogonalEdgeStyle;rounded=0;orthogonalLoop=1;jettySize=auto;html=1;exitX=1;exitY=0.5;exitDx=0;exitDy=0;entryX=0;entryY=0.5;entryDx=0;entryDy=0;fillColor=#fff2cc;strokeColor=#d6b656;strokeWidth=3;" parent="D8D9cCsM-JOo3FR58DQU-1" source="D8D9cCsM-JOo3FR58DQU-18" target="D8D9cCsM-JOo3FR58DQU-19" edge="1">
          <mxGeometry relative="1" as="geometry">
            <Array as="points">
              <mxPoint x="611" y="750" />
            </Array>
          </mxGeometry>
        </mxCell>
        <mxCell id="D8D9cCsM-JOo3FR58DQU-27" style="edgeStyle=orthogonalEdgeStyle;rounded=0;orthogonalLoop=1;jettySize=auto;html=1;exitX=0;exitY=0.5;exitDx=0;exitDy=0;entryX=1;entryY=0.75;entryDx=0;entryDy=0;fillColor=#ffe6cc;strokeColor=#d79b00;" parent="D8D9cCsM-JOo3FR58DQU-1" source="D8D9cCsM-JOo3FR58DQU-28" target="D8D9cCsM-JOo3FR58DQU-20" edge="1">
          <mxGeometry relative="1" as="geometry" />
        </mxCell>
        <mxCell id="D8D9cCsM-JOo3FR58DQU-28" value="&lt;h1&gt;&lt;i&gt;Depth Camera&lt;/i&gt;&lt;/h1&gt;&lt;p&gt;&lt;i&gt;Specs/descr: Depth camera&lt;/i&gt;&lt;/p&gt;&lt;p&gt;&lt;i&gt;Model: Intel D455&lt;/i&gt;&lt;/p&gt;" style="text;html=1;spacing=5;spacingTop=-20;whiteSpace=wrap;overflow=hidden;rounded=0;fillColor=#f5f5f5;fontColor=#333333;strokeColor=#666666;" parent="D8D9cCsM-JOo3FR58DQU-1" vertex="1">
          <mxGeometry x="1222" y="1125.5" width="240" height="110" as="geometry" />
        </mxCell>
        <mxCell id="D8D9cCsM-JOo3FR58DQU-29" style="edgeStyle=orthogonalEdgeStyle;rounded=0;orthogonalLoop=1;jettySize=auto;html=1;exitX=0;exitY=0.5;exitDx=0;exitDy=0;entryX=1;entryY=0.5;entryDx=0;entryDy=0;fillColor=#ffe6cc;strokeColor=#d79b00;" parent="D8D9cCsM-JOo3FR58DQU-1" source="D8D9cCsM-JOo3FR58DQU-30" target="D8D9cCsM-JOo3FR58DQU-20" edge="1">
          <mxGeometry relative="1" as="geometry">
            <Array as="points">
              <mxPoint x="1232" y="1025" />
              <mxPoint x="1141" y="1025" />
              <mxPoint x="1141" y="1010" />
            </Array>
          </mxGeometry>
        </mxCell>
        <mxCell id="D8D9cCsM-JOo3FR58DQU-30" value="&lt;h1&gt;&lt;i&gt;360deg Camera&lt;/i&gt;&lt;/h1&gt;&lt;p&gt;&lt;i&gt;Specs/descr: 360 degree view action camera&lt;/i&gt;&lt;/p&gt;&lt;p&gt;&lt;i&gt;Model: ONE-R Insta360&amp;nbsp;&lt;/i&gt;&lt;/p&gt;" style="text;html=1;spacing=5;spacingTop=-20;whiteSpace=wrap;overflow=hidden;rounded=0;fillColor=#f5f5f5;fontColor=#333333;strokeColor=#666666;" parent="D8D9cCsM-JOo3FR58DQU-1" vertex="1">
          <mxGeometry x="1222" y="995" width="240" height="110" as="geometry" />
        </mxCell>
        <mxCell id="pRTrayWc3h6vLMD69WKc-2" style="edgeStyle=orthogonalEdgeStyle;rounded=0;orthogonalLoop=1;jettySize=auto;html=1;exitX=1;exitY=0.5;exitDx=0;exitDy=0;entryX=0;entryY=0.25;entryDx=0;entryDy=0;endArrow=none;endFill=0;startArrow=classic;startFill=1;" parent="D8D9cCsM-JOo3FR58DQU-1" source="D8D9cCsM-JOo3FR58DQU-31" target="D8D9cCsM-JOo3FR58DQU-15" edge="1">
          <mxGeometry relative="1" as="geometry">
            <mxPoint x="1111" y="135" as="targetPoint" />
          </mxGeometry>
        </mxCell>
        <mxCell id="D8D9cCsM-JOo3FR58DQU-31" value="&lt;h1&gt;&lt;i&gt;Flash Modules&lt;/i&gt;&lt;/h1&gt;&lt;p&gt;&lt;i&gt;Specs/descr: 6 camera flash modules&lt;/i&gt;&lt;/p&gt;&lt;p&gt;&lt;i&gt;Model: Inhouse design&lt;/i&gt;&lt;/p&gt;" style="text;html=1;spacing=5;spacingTop=-20;whiteSpace=wrap;overflow=hidden;rounded=0;fillColor=#f5f5f5;fontColor=#333333;strokeColor=#666666;" parent="D8D9cCsM-JOo3FR58DQU-1" vertex="1">
          <mxGeometry x="781" y="175" width="240" height="110" as="geometry" />
        </mxCell>
        <mxCell id="D8D9cCsM-JOo3FR58DQU-32" style="edgeStyle=orthogonalEdgeStyle;rounded=0;orthogonalLoop=1;jettySize=auto;html=1;exitX=0;exitY=0.5;exitDx=0;exitDy=0;entryX=1;entryY=0.25;entryDx=0;entryDy=0;fillColor=#ffe6cc;strokeColor=#d79b00;" parent="D8D9cCsM-JOo3FR58DQU-1" source="D8D9cCsM-JOo3FR58DQU-33" target="D8D9cCsM-JOo3FR58DQU-20" edge="1">
          <mxGeometry relative="1" as="geometry">
            <Array as="points">
              <mxPoint x="1111" y="910" />
              <mxPoint x="1111" y="983" />
            </Array>
          </mxGeometry>
        </mxCell>
        <mxCell id="D8D9cCsM-JOo3FR58DQU-33" value="&lt;h1&gt;&lt;i&gt;IMU Module&lt;/i&gt;&lt;/h1&gt;&lt;p&gt;&lt;i&gt;Specs/descr: Depth camera&lt;/i&gt;&lt;/p&gt;&lt;p&gt;&lt;i&gt;Model: XSENS? or Vectornav VN100-S&lt;/i&gt;&lt;/p&gt;" style="text;html=1;spacing=5;spacingTop=-20;whiteSpace=wrap;overflow=hidden;rounded=0;fillColor=#f5f5f5;fontColor=#333333;strokeColor=#666666;" parent="D8D9cCsM-JOo3FR58DQU-1" vertex="1">
          <mxGeometry x="1222" y="865" width="240" height="110" as="geometry" />
        </mxCell>
        <mxCell id="D8D9cCsM-JOo3FR58DQU-34" style="edgeStyle=orthogonalEdgeStyle;rounded=0;orthogonalLoop=1;jettySize=auto;html=1;exitX=0;exitY=0.5;exitDx=0;exitDy=0;entryX=1;entryY=0;entryDx=0;entryDy=0;fillColor=#ffe6cc;strokeColor=#d79b00;" parent="D8D9cCsM-JOo3FR58DQU-1" source="D8D9cCsM-JOo3FR58DQU-36" target="D8D9cCsM-JOo3FR58DQU-20" edge="1">
          <mxGeometry relative="1" as="geometry">
            <Array as="points">
              <mxPoint x="1232" y="745" />
              <mxPoint x="1081" y="745" />
              <mxPoint x="1081" y="955" />
            </Array>
          </mxGeometry>
        </mxCell>
        <mxCell id="D8D9cCsM-JOo3FR58DQU-36" value="&lt;h1&gt;&lt;i&gt;GPS Module&lt;/i&gt;&lt;/h1&gt;&lt;p&gt;&lt;i&gt;Specs/descr: Depth camera&lt;/i&gt;&lt;/p&gt;&lt;p&gt;&lt;i&gt;Model: XSENS GNSS RTK or Drotek DPO601&lt;/i&gt;&lt;/p&gt;" style="text;html=1;spacing=5;spacingTop=-20;whiteSpace=wrap;overflow=hidden;rounded=0;fillColor=#f5f5f5;fontColor=#333333;strokeColor=#666666;" parent="D8D9cCsM-JOo3FR58DQU-1" vertex="1">
          <mxGeometry x="1232" y="695" width="240" height="110" as="geometry" />
        </mxCell>
        <mxCell id="D8D9cCsM-JOo3FR58DQU-37" style="edgeStyle=orthogonalEdgeStyle;rounded=0;orthogonalLoop=1;jettySize=auto;html=1;exitX=0.5;exitY=1;exitDx=0;exitDy=0;entryX=1;entryY=0.5;entryDx=0;entryDy=0;endArrow=none;endFill=0;" parent="D8D9cCsM-JOo3FR58DQU-1" source="D8D9cCsM-JOo3FR58DQU-38" target="D8D9cCsM-JOo3FR58DQU-36" edge="1">
          <mxGeometry relative="1" as="geometry" />
        </mxCell>
        <mxCell id="D8D9cCsM-JOo3FR58DQU-38" value="&lt;h1 style=&quot;border-color: var(--border-color);&quot;&gt;&lt;i style=&quot;border-color: var(--border-color);&quot;&gt;GPS Antenna&lt;/i&gt;&lt;/h1&gt;&lt;h1&gt;&lt;p style=&quot;border-color: var(--border-color); font-size: 12px; font-weight: 400;&quot;&gt;&lt;i style=&quot;border-color: var(--border-color);&quot;&gt;Specs/descr: High spec GPS anatenna&lt;/i&gt;&lt;/p&gt;&lt;p style=&quot;border-color: var(--border-color); font-size: 12px; font-weight: 400;&quot;&gt;&lt;i style=&quot;border-color: var(--border-color);&quot;&gt;Model: ?&lt;/i&gt;&lt;/p&gt;&lt;/h1&gt;" style="text;html=1;spacing=5;spacingTop=-20;whiteSpace=wrap;overflow=hidden;rounded=0;fillColor=#f5f5f5;fontColor=#333333;strokeColor=#666666;" parent="D8D9cCsM-JOo3FR58DQU-1" vertex="1">
          <mxGeometry x="1441" y="170" width="140" height="140" as="geometry" />
        </mxCell>
        <mxCell id="D8D9cCsM-JOo3FR58DQU-39" style="edgeStyle=orthogonalEdgeStyle;rounded=0;orthogonalLoop=1;jettySize=auto;html=1;exitX=0;exitY=0.5;exitDx=0;exitDy=0;entryX=0;entryY=0.25;entryDx=0;entryDy=0;startArrow=none;startFill=0;endArrow=none;endFill=0;" parent="D8D9cCsM-JOo3FR58DQU-1" source="D8D9cCsM-JOo3FR58DQU-40" target="D8D9cCsM-JOo3FR58DQU-25" edge="1">
          <mxGeometry relative="1" as="geometry">
            <Array as="points">
              <mxPoint x="1190" y="240" />
              <mxPoint x="1190" y="345" />
              <mxPoint x="728" y="345" />
              <mxPoint x="728" y="408" />
            </Array>
          </mxGeometry>
        </mxCell>
        <mxCell id="D8D9cCsM-JOo3FR58DQU-40" value="&lt;h1 style=&quot;border-color: var(--border-color);&quot;&gt;&lt;i style=&quot;border-color: var(--border-color);&quot;&gt;2.4 GHz Antenna&lt;/i&gt;&lt;/h1&gt;&lt;h1&gt;&lt;p style=&quot;border-color: var(--border-color); font-size: 12px; font-weight: 400;&quot;&gt;&lt;i style=&quot;border-color: var(--border-color);&quot;&gt;Specs/descr: High spec 2.4 GHz Wifi anatenna&lt;/i&gt;&lt;/p&gt;&lt;p style=&quot;border-color: var(--border-color); font-size: 12px; font-weight: 400;&quot;&gt;&lt;i style=&quot;border-color: var(--border-color);&quot;&gt;Model: ?&lt;/i&gt;&lt;/p&gt;&lt;/h1&gt;" style="text;html=1;spacing=5;spacingTop=-20;whiteSpace=wrap;overflow=hidden;rounded=0;fillColor=#f5f5f5;fontColor=#333333;strokeColor=#666666;" parent="D8D9cCsM-JOo3FR58DQU-1" vertex="1">
          <mxGeometry x="1241" y="170" width="140" height="140" as="geometry" />
        </mxCell>
        <mxCell id="D8D9cCsM-JOo3FR58DQU-41" value="" style="group" parent="D8D9cCsM-JOo3FR58DQU-1" vertex="1" connectable="0">
          <mxGeometry x="141" y="165" width="240" height="220" as="geometry" />
        </mxCell>
        <mxCell id="D8D9cCsM-JOo3FR58DQU-42" value="" style="group" parent="D8D9cCsM-JOo3FR58DQU-41" vertex="1" connectable="0">
          <mxGeometry width="240" height="220" as="geometry" />
        </mxCell>
        <mxCell id="D8D9cCsM-JOo3FR58DQU-43" value="&lt;h1&gt;&lt;i&gt;Contactor box&lt;/i&gt;&lt;/h1&gt;&lt;p&gt;&lt;i&gt;Specs/descr: Contains 12V coil contactor and battery bus bar. 25 Ohm high power resistor to limit current through coil?&lt;/i&gt;&lt;/p&gt;&lt;p&gt;&lt;i&gt;Model: Littlefuse DCNI-EV100-BS&lt;/i&gt;&lt;/p&gt;" style="text;html=1;spacing=5;spacingTop=-20;whiteSpace=wrap;overflow=hidden;rounded=0;fillColor=#f5f5f5;fontColor=#333333;strokeColor=#666666;" parent="D8D9cCsM-JOo3FR58DQU-42" vertex="1">
          <mxGeometry width="240" height="220" as="geometry" />
        </mxCell>
        <mxCell id="D8D9cCsM-JOo3FR58DQU-44" value="" style="group;rotation=90;" parent="D8D9cCsM-JOo3FR58DQU-42" vertex="1" connectable="0">
          <mxGeometry x="92.5" y="130" width="62.5" height="67.5" as="geometry" />
        </mxCell>
        <mxCell id="D8D9cCsM-JOo3FR58DQU-45" value="" style="rounded=0;whiteSpace=wrap;html=1;fillColor=none;dashed=1;dashPattern=1 1;strokeWidth=2;rotation=90;points=[[0,0,0,0,0],[0,0.25,0,0,0],[0,0.5,0,0,0],[0,0.75,0,0,0],[0,1,0,0,0],[0.5,0,0,0,0],[0.5,1,0,0,0],[1,0,0,0,0],[1,0.25,0,0,0],[1,0.5,0,0,0],[1,0.75,0,0,0],[1,1,0,0,0]];" parent="D8D9cCsM-JOo3FR58DQU-44" vertex="1">
          <mxGeometry x="-7.5" y="7.5" width="70" height="60" as="geometry" />
        </mxCell>
        <mxCell id="D8D9cCsM-JOo3FR58DQU-46" style="edgeStyle=orthogonalEdgeStyle;rounded=0;orthogonalLoop=1;jettySize=auto;html=1;exitX=0;exitY=1;exitDx=0;exitDy=0;exitPerimeter=0;endArrow=block;endFill=1;strokeWidth=4;" parent="D8D9cCsM-JOo3FR58DQU-44" source="D8D9cCsM-JOo3FR58DQU-48" edge="1">
          <mxGeometry relative="1" as="geometry">
            <mxPoint x="-29.99999999999997" y="81" as="targetPoint" />
            <Array as="points">
              <mxPoint x="-30" y="58" />
            </Array>
          </mxGeometry>
        </mxCell>
        <mxCell id="D8D9cCsM-JOo3FR58DQU-47" value="" style="html=1;shape=mxgraph.electrical.electro-mechanical.singleSwitch;aspect=fixed;elSwitchState=off;rotation=0;strokeWidth=2;" parent="D8D9cCsM-JOo3FR58DQU-44" vertex="1">
          <mxGeometry x="-3" y="6" width="60" height="16" as="geometry" />
        </mxCell>
        <mxCell id="D8D9cCsM-JOo3FR58DQU-48" value="" style="pointerEvents=1;verticalLabelPosition=bottom;shadow=0;dashed=0;align=center;html=1;verticalAlign=top;shape=mxgraph.electrical.inductors.inductor_3;rotation=0;strokeWidth=2;" parent="D8D9cCsM-JOo3FR58DQU-44" vertex="1">
          <mxGeometry x="-3" y="50" width="60" height="8" as="geometry" />
        </mxCell>
        <mxCell id="D8D9cCsM-JOo3FR58DQU-49" style="edgeStyle=orthogonalEdgeStyle;rounded=0;orthogonalLoop=1;jettySize=auto;html=1;exitX=1;exitY=0.8;exitDx=0;exitDy=0;entryX=0;entryY=0.5;entryDx=0;entryDy=0;fillColor=#f8cecc;strokeColor=#b85450;strokeWidth=4;" parent="D8D9cCsM-JOo3FR58DQU-1" source="D8D9cCsM-JOo3FR58DQU-7" target="D8D9cCsM-JOo3FR58DQU-18" edge="1">
          <mxGeometry relative="1" as="geometry" />
        </mxCell>
        <mxCell id="D8D9cCsM-JOo3FR58DQU-50" style="edgeStyle=orthogonalEdgeStyle;rounded=0;orthogonalLoop=1;jettySize=auto;html=1;exitX=1;exitY=0.8;exitDx=0;exitDy=0;entryX=0;entryY=0.5;entryDx=0;entryDy=0;fillColor=#f8cecc;strokeColor=#b85450;strokeWidth=4;startArrow=oval;startFill=1;dashed=1;dashPattern=1 1;" parent="D8D9cCsM-JOo3FR58DQU-1" source="D8D9cCsM-JOo3FR58DQU-47" target="D8D9cCsM-JOo3FR58DQU-13" edge="1">
          <mxGeometry relative="1" as="geometry">
            <Array as="points">
              <mxPoint x="411" y="314" />
              <mxPoint x="411" y="230" />
            </Array>
          </mxGeometry>
        </mxCell>
        <mxCell id="D8D9cCsM-JOo3FR58DQU-51" value="" style="group" parent="D8D9cCsM-JOo3FR58DQU-1" vertex="1" connectable="0">
          <mxGeometry x="331" y="455" width="81" height="70" as="geometry" />
        </mxCell>
        <mxCell id="D8D9cCsM-JOo3FR58DQU-52" value="" style="pointerEvents=1;verticalLabelPosition=bottom;shadow=0;dashed=0;align=center;html=1;verticalAlign=top;shape=mxgraph.electrical.resistors.resistor_1;rotation=90;" parent="D8D9cCsM-JOo3FR58DQU-51" vertex="1">
          <mxGeometry x="-25" y="25" width="70" height="20" as="geometry" />
        </mxCell>
        <mxCell id="D8D9cCsM-JOo3FR58DQU-53" value="&lt;b&gt;25 Ohm&lt;/b&gt;" style="text;html=1;strokeColor=none;fillColor=none;align=center;verticalAlign=middle;whiteSpace=wrap;rounded=0;" parent="D8D9cCsM-JOo3FR58DQU-51" vertex="1">
          <mxGeometry x="21" y="20" width="60" height="30" as="geometry" />
        </mxCell>
        <mxCell id="D8D9cCsM-JOo3FR58DQU-54" value="" style="group" parent="D8D9cCsM-JOo3FR58DQU-1" vertex="1" connectable="0">
          <mxGeometry x="412" y="425" width="140" height="170" as="geometry" />
        </mxCell>
        <mxCell id="D8D9cCsM-JOo3FR58DQU-55" value="&lt;h1&gt;&lt;i&gt;E-stop&lt;/i&gt;&lt;/h1&gt;&lt;p&gt;&lt;i&gt;Specs/descr: Emergency stop button&lt;/i&gt;&lt;/p&gt;" style="text;html=1;spacing=5;spacingTop=-20;whiteSpace=wrap;overflow=hidden;rounded=0;fillColor=#f5f5f5;fontColor=#333333;strokeColor=#666666;" parent="D8D9cCsM-JOo3FR58DQU-54" vertex="1">
          <mxGeometry width="140" height="170" as="geometry" />
        </mxCell>
        <mxCell id="D8D9cCsM-JOo3FR58DQU-56" value="" style="pointerEvents=1;verticalLabelPosition=bottom;shadow=0;dashed=0;align=center;html=1;verticalAlign=top;shape=mxgraph.electrical.electro-mechanical.pushbuttonBreak2;elSwitchState=off;" parent="D8D9cCsM-JOo3FR58DQU-54" vertex="1">
          <mxGeometry x="32.5" y="99" width="75" height="40" as="geometry" />
        </mxCell>
        <mxCell id="D8D9cCsM-JOo3FR58DQU-57" style="edgeStyle=orthogonalEdgeStyle;rounded=0;orthogonalLoop=1;jettySize=auto;html=1;exitX=0;exitY=0.8;exitDx=0;exitDy=0;entryX=1;entryY=0.5;entryDx=0;entryDy=0;entryPerimeter=0;endArrow=none;endFill=0;fillColor=#fff2cc;strokeColor=#d6b656;strokeWidth=3;" parent="D8D9cCsM-JOo3FR58DQU-1" source="D8D9cCsM-JOo3FR58DQU-56" target="D8D9cCsM-JOo3FR58DQU-52" edge="1">
          <mxGeometry relative="1" as="geometry" />
        </mxCell>
        <mxCell id="D8D9cCsM-JOo3FR58DQU-58" style="edgeStyle=orthogonalEdgeStyle;rounded=0;orthogonalLoop=1;jettySize=auto;html=1;exitX=1;exitY=1;exitDx=0;exitDy=0;exitPerimeter=0;entryX=0;entryY=0.5;entryDx=0;entryDy=0;entryPerimeter=0;endArrow=none;endFill=0;startArrow=classic;startFill=1;fillColor=#fff2cc;strokeColor=#d6b656;strokeWidth=3;" parent="D8D9cCsM-JOo3FR58DQU-1" source="D8D9cCsM-JOo3FR58DQU-48" target="D8D9cCsM-JOo3FR58DQU-52" edge="1">
          <mxGeometry relative="1" as="geometry">
            <Array as="points">
              <mxPoint x="341" y="353" />
            </Array>
          </mxGeometry>
        </mxCell>
        <mxCell id="D8D9cCsM-JOo3FR58DQU-59" style="edgeStyle=orthogonalEdgeStyle;rounded=0;orthogonalLoop=1;jettySize=auto;html=1;exitX=1;exitY=0.8;exitDx=0;exitDy=0;entryX=1;entryY=0.25;entryDx=0;entryDy=0;endArrow=none;endFill=0;startArrow=classic;startFill=1;fillColor=#fff2cc;strokeColor=#d6b656;strokeWidth=3;" parent="D8D9cCsM-JOo3FR58DQU-1" source="D8D9cCsM-JOo3FR58DQU-56" target="D8D9cCsM-JOo3FR58DQU-18" edge="1">
          <mxGeometry relative="1" as="geometry">
            <Array as="points">
              <mxPoint x="631" y="556" />
              <mxPoint x="631" y="685" />
              <mxPoint x="611" y="685" />
            </Array>
          </mxGeometry>
        </mxCell>
        <mxCell id="D8D9cCsM-JOo3FR58DQU-60" style="edgeStyle=orthogonalEdgeStyle;rounded=0;orthogonalLoop=1;jettySize=auto;html=1;exitX=1;exitY=0.8;exitDx=0;exitDy=0;entryX=0;entryY=0.5;entryDx=0;entryDy=0;fillColor=#f8cecc;strokeColor=#b85450;strokeWidth=4;dashed=1;dashPattern=1 1;" parent="D8D9cCsM-JOo3FR58DQU-1" source="D8D9cCsM-JOo3FR58DQU-47" target="D8D9cCsM-JOo3FR58DQU-11" edge="1">
          <mxGeometry relative="1" as="geometry">
            <mxPoint x="151" y="785" as="targetPoint" />
            <Array as="points">
              <mxPoint x="301" y="314" />
              <mxPoint x="301" y="335" />
              <mxPoint x="121" y="335" />
              <mxPoint x="121" y="1060" />
            </Array>
          </mxGeometry>
        </mxCell>
        <mxCell id="D8D9cCsM-JOo3FR58DQU-61" style="edgeStyle=orthogonalEdgeStyle;rounded=0;orthogonalLoop=1;jettySize=auto;html=1;exitX=0;exitY=0.8;exitDx=0;exitDy=0;entryX=0;entryY=0.8;entryDx=0;entryDy=0;fillColor=#f8cecc;strokeColor=#b85450;strokeWidth=4;" parent="D8D9cCsM-JOo3FR58DQU-1" source="D8D9cCsM-JOo3FR58DQU-7" target="D8D9cCsM-JOo3FR58DQU-47" edge="1">
          <mxGeometry relative="1" as="geometry">
            <Array as="points">
              <mxPoint x="91" y="721" />
              <mxPoint x="91" y="314" />
            </Array>
          </mxGeometry>
        </mxCell>
        <mxCell id="D8D9cCsM-JOo3FR58DQU-62" value="&lt;font style=&quot;font-size: 36px;&quot;&gt;PLATFORM&lt;/font&gt;" style="text;html=1;strokeColor=none;fillColor=none;align=center;verticalAlign=middle;whiteSpace=wrap;rounded=0;" parent="D8D9cCsM-JOo3FR58DQU-1" vertex="1">
          <mxGeometry x="1491" y="845" width="200" height="30" as="geometry" />
        </mxCell>
        <mxCell id="D8D9cCsM-JOo3FR58DQU-63" value="&lt;font style=&quot;font-size: 36px;&quot;&gt;PAYLOAD&lt;/font&gt;" style="text;html=1;strokeColor=none;fillColor=none;align=center;verticalAlign=middle;whiteSpace=wrap;rounded=0;" parent="D8D9cCsM-JOo3FR58DQU-1" vertex="1">
          <mxGeometry x="1521" y="795" width="170" height="30" as="geometry" />
        </mxCell>
        <mxCell id="D8D9cCsM-JOo3FR58DQU-64" style="edgeStyle=orthogonalEdgeStyle;rounded=0;orthogonalLoop=1;jettySize=auto;html=1;exitX=0;exitY=0.8;exitDx=0;exitDy=0;entryX=0.25;entryY=0;entryDx=0;entryDy=0;fillColor=#f8cecc;strokeColor=#b85450;strokeWidth=4;endArrow=none;endFill=0;startArrow=classic;startFill=1;" parent="D8D9cCsM-JOo3FR58DQU-1" source="D8D9cCsM-JOo3FR58DQU-47" target="D8D9cCsM-JOo3FR58DQU-8" edge="1">
          <mxGeometry relative="1" as="geometry">
            <mxPoint x="-43.3478260869565" y="685" as="targetPoint" />
            <Array as="points">
              <mxPoint x="181" y="314" />
              <mxPoint x="181" y="305" />
              <mxPoint x="71" y="305" />
              <mxPoint x="71" y="1085" />
              <mxPoint x="151" y="1085" />
              <mxPoint x="151" y="1125" />
            </Array>
          </mxGeometry>
        </mxCell>
        <mxCell id="TSPZAk-_MEQMJ_LYUPrH-2" value="&lt;h1&gt;&lt;i style=&quot;background-color: initial;&quot;&gt;19V Power supply&lt;br&gt;&lt;/i&gt;&lt;i style=&quot;background-color: initial; font-size: 12px; font-weight: normal;&quot;&gt;Specs/descr: DCDC converter&lt;/i&gt;&lt;/h1&gt;&lt;p&gt;&lt;i style=&quot;border-color: var(--border-color);&quot;&gt;Model: TDK-Lambda i7a DCDC converter&lt;/i&gt;&lt;br&gt;&lt;/p&gt;" style="text;html=1;spacing=5;spacingTop=-20;whiteSpace=wrap;overflow=hidden;rounded=0;fillColor=#fff2cc;strokeColor=#d6b656;strokeWidth=3;" parent="D8D9cCsM-JOo3FR58DQU-1" vertex="1">
          <mxGeometry x="381" y="865" width="240" height="110" as="geometry" />
        </mxCell>
        <mxCell id="TSPZAk-_MEQMJ_LYUPrH-0" value="&lt;h1&gt;&lt;i style=&quot;background-color: initial;&quot;&gt;BMS Module&lt;br&gt;&lt;/i&gt;&lt;i style=&quot;background-color: initial; font-size: 12px; font-weight: normal;&quot;&gt;Specs/descr: Battery monitoring system&lt;/i&gt;&lt;/h1&gt;&lt;p&gt;&lt;i&gt;Model: ?&lt;/i&gt;&lt;/p&gt;" style="text;html=1;spacing=5;spacingTop=-20;whiteSpace=wrap;overflow=hidden;rounded=0;fillColor=#f5f5f5;fontColor=#333333;strokeColor=#666666;" parent="D8D9cCsM-JOo3FR58DQU-1" vertex="1">
          <mxGeometry x="412" y="1155" width="240" height="110" as="geometry" />
        </mxCell>
        <mxCell id="TSPZAk-_MEQMJ_LYUPrH-6" style="edgeStyle=orthogonalEdgeStyle;rounded=0;orthogonalLoop=1;jettySize=auto;html=1;exitX=0.5;exitY=1;exitDx=0;exitDy=0;entryX=1;entryY=0.25;entryDx=0;entryDy=0;startArrow=classic;startFill=1;fillColor=#f5f5f5;strokeColor=#666666;" parent="D8D9cCsM-JOo3FR58DQU-1" source="TSPZAk-_MEQMJ_LYUPrH-4" target="D8D9cCsM-JOo3FR58DQU-19" edge="1">
          <mxGeometry relative="1" as="geometry">
            <Array as="points">
              <mxPoint x="1106" y="722" />
            </Array>
          </mxGeometry>
        </mxCell>
        <mxCell id="TSPZAk-_MEQMJ_LYUPrH-7" style="edgeStyle=orthogonalEdgeStyle;rounded=0;orthogonalLoop=1;jettySize=auto;html=1;exitX=0.5;exitY=0;exitDx=0;exitDy=0;entryX=0;entryY=0.5;entryDx=0;entryDy=0;startArrow=classic;startFill=1;fillColor=#f5f5f5;strokeColor=#666666;" parent="D8D9cCsM-JOo3FR58DQU-1" source="TSPZAk-_MEQMJ_LYUPrH-4" target="D8D9cCsM-JOo3FR58DQU-15" edge="1">
          <mxGeometry relative="1" as="geometry" />
        </mxCell>
        <mxCell id="TSPZAk-_MEQMJ_LYUPrH-4" value="&lt;h1&gt;&lt;i style=&quot;background-color: initial;&quot;&gt;Ethernet Switch Box&lt;br&gt;&lt;/i&gt;&lt;i style=&quot;background-color: initial; font-size: 12px; font-weight: normal;&quot;&gt;Specs/descr: Ethernet switch box for IP cameras.&lt;/i&gt;&lt;/h1&gt;&lt;p&gt;&lt;i&gt;Model: Mikratik Cloud Switch&lt;/i&gt;&lt;/p&gt;" style="text;html=1;spacing=5;spacingTop=-20;whiteSpace=wrap;overflow=hidden;rounded=0;fillColor=#f5f5f5;fontColor=#333333;strokeColor=#666666;" parent="D8D9cCsM-JOo3FR58DQU-1" vertex="1">
          <mxGeometry x="1031" y="470" width="150" height="180" as="geometry" />
        </mxCell>
        <mxCell id="pRTrayWc3h6vLMD69WKc-0" style="edgeStyle=orthogonalEdgeStyle;rounded=0;orthogonalLoop=1;jettySize=auto;html=1;exitX=1;exitY=0.8;exitDx=0;exitDy=0;entryX=0;entryY=0.5;entryDx=0;entryDy=0;fillColor=#f8cecc;strokeColor=#b85450;strokeWidth=4;startArrow=oval;startFill=1;" parent="D8D9cCsM-JOo3FR58DQU-1" source="D8D9cCsM-JOo3FR58DQU-7" target="TSPZAk-_MEQMJ_LYUPrH-2" edge="1">
          <mxGeometry relative="1" as="geometry">
            <Array as="points">
              <mxPoint x="341" y="721" />
              <mxPoint x="341" y="920" />
            </Array>
          </mxGeometry>
        </mxCell>
        <mxCell id="pRTrayWc3h6vLMD69WKc-3" value="" style="endArrow=none;dashed=1;html=1;rounded=0;strokeWidth=3;" parent="D8D9cCsM-JOo3FR58DQU-1" edge="1">
          <mxGeometry width="50" height="50" relative="1" as="geometry">
            <mxPoint x="10" y="833.18" as="sourcePoint" />
            <mxPoint x="1740" y="833.18" as="targetPoint" />
          </mxGeometry>
        </mxCell>
        <mxCell id="gkSpoeWH_LJfCRlHQy6n-0" value="&lt;font style=&quot;font-size: 36px;&quot;&gt;ROBOT ARM&lt;/font&gt;" style="text;html=1;strokeColor=none;fillColor=none;align=center;verticalAlign=middle;whiteSpace=wrap;rounded=0;" parent="D8D9cCsM-JOo3FR58DQU-1" vertex="1">
          <mxGeometry x="1740" y="310" width="170" height="90" as="geometry" />
        </mxCell>
        <mxCell id="gkSpoeWH_LJfCRlHQy6n-1" style="edgeStyle=orthogonalEdgeStyle;rounded=0;orthogonalLoop=1;jettySize=auto;html=1;exitX=0;exitY=0.5;exitDx=0;exitDy=0;entryX=1;entryY=0.5;entryDx=0;entryDy=0;fillColor=#ffe6cc;strokeColor=#d79b00;" parent="D8D9cCsM-JOo3FR58DQU-1" source="D8D9cCsM-JOo3FR58DQU-36" target="D8D9cCsM-JOo3FR58DQU-19" edge="1">
          <mxGeometry relative="1" as="geometry">
            <Array as="points">
              <mxPoint x="1242" y="750" />
              <mxPoint x="1242" y="755" />
              <mxPoint x="1091" y="755" />
              <mxPoint x="1091" y="750" />
            </Array>
            <mxPoint x="1242" y="760" as="sourcePoint" />
            <mxPoint x="1051" y="965" as="targetPoint" />
          </mxGeometry>
        </mxCell>
        <mxCell id="gkSpoeWH_LJfCRlHQy6n-2" value="" style="endArrow=none;dashed=1;html=1;rounded=0;strokeWidth=3;" parent="D8D9cCsM-JOo3FR58DQU-1" edge="1">
          <mxGeometry width="50" height="50" relative="1" as="geometry">
            <mxPoint x="1740" y="310" as="sourcePoint" />
            <mxPoint x="1746" y="1055" as="targetPoint" />
          </mxGeometry>
        </mxCell>
        <mxCell id="gkSpoeWH_LJfCRlHQy6n-3" value="" style="endArrow=none;dashed=1;html=1;rounded=0;strokeWidth=3;" parent="D8D9cCsM-JOo3FR58DQU-1" edge="1">
          <mxGeometry width="50" height="50" relative="1" as="geometry">
            <mxPoint x="1740" y="300" as="sourcePoint" />
            <mxPoint x="2190" y="300" as="targetPoint" />
          </mxGeometry>
        </mxCell>
        <mxCell id="gkSpoeWH_LJfCRlHQy6n-4" value="&lt;h1&gt;&lt;i&gt;Power Supply&lt;/i&gt;&lt;/h1&gt;&lt;p&gt;&lt;i&gt;Specs/descr:&amp;nbsp;&lt;/i&gt;&lt;/p&gt;&lt;p&gt;&lt;i&gt;Model: ?&lt;/i&gt;&lt;/p&gt;" style="text;html=1;spacing=5;spacingTop=-20;whiteSpace=wrap;overflow=hidden;rounded=0;fillColor=#f5f5f5;fontColor=#333333;strokeColor=#666666;" parent="D8D9cCsM-JOo3FR58DQU-1" vertex="1">
          <mxGeometry x="1770" y="425" width="240" height="110" as="geometry" />
        </mxCell>
        <mxCell id="gkSpoeWH_LJfCRlHQy6n-5" value="&lt;h1&gt;&lt;i&gt;Robot Arm&lt;/i&gt;&lt;/h1&gt;&lt;h1&gt;&lt;i style=&quot;background-color: initial; font-size: 12px; font-weight: normal;&quot;&gt;Specs/descr: 6 DoF, ~5kg payload robot arm. 20.6kg or 12.2kg&lt;/i&gt;&lt;br&gt;&lt;/h1&gt;&lt;p&gt;&lt;i&gt;Model: UR5 or xArm6&lt;/i&gt;&lt;/p&gt;" style="text;html=1;spacing=5;spacingTop=-20;whiteSpace=wrap;overflow=hidden;rounded=0;fillColor=#f5f5f5;fontColor=#333333;strokeColor=#666666;" parent="D8D9cCsM-JOo3FR58DQU-1" vertex="1">
          <mxGeometry x="1770" y="725" width="240" height="155" as="geometry" />
        </mxCell>
        <mxCell id="gkSpoeWH_LJfCRlHQy6n-6" value="&lt;h1&gt;&lt;i&gt;Arm Control Box&lt;/i&gt;&lt;/h1&gt;&lt;p&gt;&lt;i&gt;Specs/descr:&amp;nbsp;&lt;/i&gt;&lt;/p&gt;&lt;p&gt;&lt;i&gt;Model: ?&lt;/i&gt;&lt;/p&gt;" style="text;html=1;spacing=5;spacingTop=-20;whiteSpace=wrap;overflow=hidden;rounded=0;fillColor=#f5f5f5;fontColor=#333333;strokeColor=#666666;" parent="D8D9cCsM-JOo3FR58DQU-1" vertex="1">
          <mxGeometry x="1770" y="580" width="240" height="110" as="geometry" />
        </mxCell>
      </root>
    </mxGraphModel>
  </diagram>
</mxfile>
